<mxfile host="65bd71144e">
    <diagram id="5pS0CdnYppJd4FNUCvO_" name="主体架构">
        <mxGraphModel grid="1" gridSize="10" guides="1" tooltips="1" connect="1" arrows="1" page="1" fold="1" pageScale="1" pageWidth="4681" pageHeight="3300" math="0" shadow="0">
            <root>
                <mxCell id="0"/>
                <mxCell id="1" parent="0"/>
                <mxCell id="2" value="" style="rounded=0;whiteSpace=wrap;html=1;align=left;fillColor=#ffe6cc;strokeColor=#d79b00;" parent="1" vertex="1">
                    <mxGeometry x="230" y="60" width="390" height="280" as="geometry"/>
                </mxCell>
                <mxCell id="3" value="" style="rounded=0;whiteSpace=wrap;html=1;align=left;" parent="1" vertex="1">
                    <mxGeometry x="350" y="150" width="250" height="170" as="geometry"/>
                </mxCell>
                <mxCell id="4" value="内核&lt;br style=&quot;font-size: 16px;&quot;&gt;Kernel" style="rounded=0;whiteSpace=wrap;html=1;fontSize=16;" parent="1" vertex="1">
                    <mxGeometry x="460" y="230" width="120" height="60" as="geometry"/>
                </mxCell>
                <mxCell id="5" value="系统软件" style="text;html=1;strokeColor=none;fillColor=none;align=center;verticalAlign=middle;whiteSpace=wrap;rounded=0;fontSize=16;" parent="1" vertex="1">
                    <mxGeometry x="370" y="170" width="70" height="30" as="geometry"/>
                </mxCell>
                <mxCell id="6" value="&lt;font style=&quot;font-size: 22px&quot;&gt;Shell&lt;/font&gt;" style="text;html=1;strokeColor=none;fillColor=none;align=center;verticalAlign=middle;whiteSpace=wrap;rounded=0;" parent="1" vertex="1">
                    <mxGeometry x="240" y="80" width="90" height="60" as="geometry"/>
                </mxCell>
                <mxCell id="8" value="sh" style="rounded=1;whiteSpace=wrap;html=1;fontSize=16;" parent="1" vertex="1">
                    <mxGeometry x="740" y="80" width="120" height="60" as="geometry"/>
                </mxCell>
                <mxCell id="10" value="bash" style="rounded=1;whiteSpace=wrap;html=1;fontSize=16;fillColor=#a20025;fontColor=#ffffff;strokeColor=#6F0000;" parent="1" vertex="1">
                    <mxGeometry x="740" y="170" width="120" height="60" as="geometry"/>
                </mxCell>
                <mxCell id="11" value="csh" style="rounded=1;whiteSpace=wrap;html=1;fontSize=16;" parent="1" vertex="1">
                    <mxGeometry x="740" y="260" width="120" height="60" as="geometry"/>
                </mxCell>
                <mxCell id="13" value="" style="endArrow=classic;html=1;fontSize=22;entryX=0;entryY=0.5;entryDx=0;entryDy=0;" parent="1" target="11" edge="1">
                    <mxGeometry width="50" height="50" relative="1" as="geometry">
                        <mxPoint x="660" y="200" as="sourcePoint"/>
                        <mxPoint x="820" y="300" as="targetPoint"/>
                    </mxGeometry>
                </mxCell>
                <mxCell id="15" value="" style="endArrow=classic;html=1;fontSize=22;entryX=0;entryY=0.5;entryDx=0;entryDy=0;" parent="1" target="8" edge="1">
                    <mxGeometry width="50" height="50" relative="1" as="geometry">
                        <mxPoint x="660" y="200" as="sourcePoint"/>
                        <mxPoint x="750" y="100" as="targetPoint"/>
                    </mxGeometry>
                </mxCell>
                <mxCell id="16" value="" style="endArrow=classic;html=1;fontSize=22;exitX=1;exitY=0.5;exitDx=0;exitDy=0;entryX=0;entryY=0.5;entryDx=0;entryDy=0;" parent="1" source="2" target="10" edge="1">
                    <mxGeometry width="50" height="50" relative="1" as="geometry">
                        <mxPoint x="690" y="230" as="sourcePoint"/>
                        <mxPoint x="740" y="180" as="targetPoint"/>
                    </mxGeometry>
                </mxCell>
                <mxCell id="17" value="" style="endArrow=classic;html=1;fontSize=16;exitX=1;exitY=0.5;exitDx=0;exitDy=0;" parent="1" source="10" edge="1">
                    <mxGeometry width="50" height="50" relative="1" as="geometry">
                        <mxPoint x="940" y="190" as="sourcePoint"/>
                        <mxPoint x="940" y="200" as="targetPoint"/>
                    </mxGeometry>
                </mxCell>
                <mxCell id="18" value="命令" style="rounded=1;whiteSpace=wrap;html=1;fontSize=16;" parent="1" vertex="1">
                    <mxGeometry x="940" y="170" width="120" height="60" as="geometry"/>
                </mxCell>
                <mxCell id="20" value="如何打开sh" style="text;html=1;align=center;verticalAlign=middle;resizable=0;points=[];autosize=1;strokeColor=none;fillColor=none;fontSize=22;" vertex="1" parent="1">
                    <mxGeometry x="275" y="395" width="130" height="30" as="geometry"/>
                </mxCell>
                <mxCell id="22" value="绝对路径" style="whiteSpace=wrap;html=1;fontSize=22;" vertex="1" parent="1">
                    <mxGeometry x="280" y="495" width="120" height="60" as="geometry"/>
                </mxCell>
                <mxCell id="23" value="必须是可执行文件" style="whiteSpace=wrap;html=1;fontSize=22;" vertex="1" parent="1">
                    <mxGeometry x="480" y="480" width="260" height="90" as="geometry"/>
                </mxCell>
                <mxCell id="24" value="普通文件脚本文件都行" style="whiteSpace=wrap;html=1;fontSize=22;" vertex="1" parent="1">
                    <mxGeometry x="480" y="610" width="260" height="90" as="geometry"/>
                </mxCell>
                <mxCell id="25" value="sh" style="whiteSpace=wrap;html=1;fontSize=22;" vertex="1" parent="1">
                    <mxGeometry x="280" y="625" width="120" height="60" as="geometry"/>
                </mxCell>
                <mxCell id="26" value="source" style="whiteSpace=wrap;html=1;fontSize=22;" vertex="1" parent="1">
                    <mxGeometry x="280" y="765" width="120" height="60" as="geometry"/>
                </mxCell>
                <mxCell id="27" value="普通文件脚本文件都行" style="whiteSpace=wrap;html=1;fontSize=22;" vertex="1" parent="1">
                    <mxGeometry x="480" y="750" width="260" height="90" as="geometry"/>
                </mxCell>
                <mxCell id="28" value="" style="endArrow=classic;html=1;fontSize=22;exitX=1;exitY=0.5;exitDx=0;exitDy=0;" edge="1" parent="1" source="22" target="23">
                    <mxGeometry width="50" height="50" relative="1" as="geometry">
                        <mxPoint x="550" y="400" as="sourcePoint"/>
                        <mxPoint x="600" y="350" as="targetPoint"/>
                    </mxGeometry>
                </mxCell>
                <mxCell id="29" value="" style="endArrow=classic;html=1;fontSize=22;exitX=1;exitY=0.5;exitDx=0;exitDy=0;" edge="1" parent="1">
                    <mxGeometry width="50" height="50" relative="1" as="geometry">
                        <mxPoint x="400" y="654.5" as="sourcePoint"/>
                        <mxPoint x="480" y="654.5" as="targetPoint"/>
                    </mxGeometry>
                </mxCell>
                <mxCell id="30" value="" style="endArrow=classic;html=1;fontSize=22;exitX=1;exitY=0.5;exitDx=0;exitDy=0;" edge="1" parent="1">
                    <mxGeometry width="50" height="50" relative="1" as="geometry">
                        <mxPoint x="400" y="794.5" as="sourcePoint"/>
                        <mxPoint x="480" y="794.5" as="targetPoint"/>
                    </mxGeometry>
                </mxCell>
            </root>
        </mxGraphModel>
    </diagram>
    <diagram id="CHmr52_B0Qd6eZemeD9U" name="编程思想">
        <mxGraphModel dx="988" dy="1297" grid="1" gridSize="10" guides="1" tooltips="1" connect="1" arrows="1" fold="1" page="1" pageScale="1" pageWidth="4681" pageHeight="3300" math="0" shadow="0">
            <root>
                <mxCell id="PF4eyjsoJ85zReDZ38xo-0"/>
                <mxCell id="PF4eyjsoJ85zReDZ38xo-1" parent="PF4eyjsoJ85zReDZ38xo-0"/>
                <mxCell id="S9lgAURIIhX5cpTMnBdC-38" value="" style="rounded=0;whiteSpace=wrap;html=1;fontSize=22;fillColor=#dae8fc;strokeColor=#6c8ebf;" vertex="1" parent="PF4eyjsoJ85zReDZ38xo-1">
                    <mxGeometry x="610" y="290" width="760" height="860" as="geometry"/>
                </mxCell>
                <mxCell id="PF4eyjsoJ85zReDZ38xo-2" value="学编程的时候是为了学什么" style="rounded=0;whiteSpace=wrap;html=1;fontSize=22;" parent="PF4eyjsoJ85zReDZ38xo-1" vertex="1">
                    <mxGeometry x="790" y="240" width="360" height="40" as="geometry"/>
                </mxCell>
                <mxCell id="S9lgAURIIhX5cpTMnBdC-0" value="变量" style="whiteSpace=wrap;html=1;fontSize=22;" parent="PF4eyjsoJ85zReDZ38xo-1" vertex="1">
                    <mxGeometry x="830" y="400" width="120" height="60" as="geometry"/>
                </mxCell>
                <mxCell id="S9lgAURIIhX5cpTMnBdC-1" value="标识符" style="whiteSpace=wrap;html=1;fontSize=22;" parent="PF4eyjsoJ85zReDZ38xo-1" vertex="1">
                    <mxGeometry x="1090" y="340" width="120" height="60" as="geometry"/>
                </mxCell>
                <mxCell id="S9lgAURIIhX5cpTMnBdC-2" value="数据类型" style="whiteSpace=wrap;html=1;fontSize=22;" parent="PF4eyjsoJ85zReDZ38xo-1" vertex="1">
                    <mxGeometry x="1090" y="480" width="120" height="60" as="geometry"/>
                </mxCell>
                <mxCell id="S9lgAURIIhX5cpTMnBdC-4" value="" style="endArrow=none;html=1;fontSize=22;exitX=1;exitY=0.5;exitDx=0;exitDy=0;" parent="PF4eyjsoJ85zReDZ38xo-1" source="S9lgAURIIhX5cpTMnBdC-0" edge="1">
                    <mxGeometry width="50" height="50" relative="1" as="geometry">
                        <mxPoint x="1040" y="650" as="sourcePoint"/>
                        <mxPoint x="1050" y="430" as="targetPoint"/>
                    </mxGeometry>
                </mxCell>
                <mxCell id="S9lgAURIIhX5cpTMnBdC-8" value="" style="endArrow=classic;html=1;fontSize=22;entryX=0;entryY=0.5;entryDx=0;entryDy=0;" parent="PF4eyjsoJ85zReDZ38xo-1" target="S9lgAURIIhX5cpTMnBdC-1" edge="1">
                    <mxGeometry width="50" height="50" relative="1" as="geometry">
                        <mxPoint x="1050" y="430" as="sourcePoint"/>
                        <mxPoint x="1090" y="380" as="targetPoint"/>
                    </mxGeometry>
                </mxCell>
                <mxCell id="S9lgAURIIhX5cpTMnBdC-9" value="" style="endArrow=classic;html=1;fontSize=22;entryX=0;entryY=0.5;entryDx=0;entryDy=0;" parent="PF4eyjsoJ85zReDZ38xo-1" target="S9lgAURIIhX5cpTMnBdC-2" edge="1">
                    <mxGeometry width="50" height="50" relative="1" as="geometry">
                        <mxPoint x="1050" y="430" as="sourcePoint"/>
                        <mxPoint x="1090" y="600" as="targetPoint"/>
                    </mxGeometry>
                </mxCell>
                <mxCell id="S9lgAURIIhX5cpTMnBdC-29" style="edgeStyle=none;html=1;entryX=0.5;entryY=0;entryDx=0;entryDy=0;fontSize=22;" edge="1" parent="PF4eyjsoJ85zReDZ38xo-1" source="S9lgAURIIhX5cpTMnBdC-10" target="S9lgAURIIhX5cpTMnBdC-7">
                    <mxGeometry relative="1" as="geometry"/>
                </mxCell>
                <mxCell id="S9lgAURIIhX5cpTMnBdC-10" value="运算符&lt;br&gt;（让多个变量产生关系）" style="whiteSpace=wrap;html=1;fontSize=22;" parent="PF4eyjsoJ85zReDZ38xo-1" vertex="1">
                    <mxGeometry x="767.38" y="620" width="245.25" height="100" as="geometry"/>
                </mxCell>
                <mxCell id="S9lgAURIIhX5cpTMnBdC-5" value="" style="endArrow=classic;html=1;fontSize=22;exitX=0.5;exitY=1;exitDx=0;exitDy=0;entryX=0.5;entryY=0;entryDx=0;entryDy=0;" edge="1" parent="PF4eyjsoJ85zReDZ38xo-1" source="S9lgAURIIhX5cpTMnBdC-0" target="S9lgAURIIhX5cpTMnBdC-10">
                    <mxGeometry width="50" height="50" relative="1" as="geometry">
                        <mxPoint x="950" y="535" as="sourcePoint"/>
                        <mxPoint x="1000" y="485" as="targetPoint"/>
                    </mxGeometry>
                </mxCell>
                <mxCell id="S9lgAURIIhX5cpTMnBdC-7" value="逻辑语句" style="whiteSpace=wrap;html=1;fontSize=22;" vertex="1" parent="PF4eyjsoJ85zReDZ38xo-1">
                    <mxGeometry x="767.37" y="810" width="245.25" height="100" as="geometry"/>
                </mxCell>
                <mxCell id="S9lgAURIIhX5cpTMnBdC-12" value="" style="edgeStyle=elbowEdgeStyle;elbow=horizontal;endArrow=classic;html=1;fontSize=22;exitX=1;exitY=0.5;exitDx=0;exitDy=0;entryX=0;entryY=0.5;entryDx=0;entryDy=0;" edge="1" parent="PF4eyjsoJ85zReDZ38xo-1" source="S9lgAURIIhX5cpTMnBdC-7" target="S9lgAURIIhX5cpTMnBdC-16">
                    <mxGeometry width="50" height="50" relative="1" as="geometry">
                        <mxPoint x="1125" y="850" as="sourcePoint"/>
                        <mxPoint x="1140" y="800" as="targetPoint"/>
                    </mxGeometry>
                </mxCell>
                <mxCell id="S9lgAURIIhX5cpTMnBdC-14" value="" style="edgeStyle=elbowEdgeStyle;elbow=horizontal;endArrow=classic;html=1;fontSize=22;entryX=0;entryY=0.5;entryDx=0;entryDy=0;" edge="1" parent="PF4eyjsoJ85zReDZ38xo-1" target="S9lgAURIIhX5cpTMnBdC-20">
                    <mxGeometry width="50" height="50" relative="1" as="geometry">
                        <mxPoint x="1070" y="860" as="sourcePoint"/>
                        <mxPoint x="1190" y="940" as="targetPoint"/>
                    </mxGeometry>
                </mxCell>
                <mxCell id="S9lgAURIIhX5cpTMnBdC-15" value="" style="endArrow=classic;html=1;fontSize=22;entryX=0;entryY=0.5;entryDx=0;entryDy=0;" edge="1" parent="PF4eyjsoJ85zReDZ38xo-1" target="S9lgAURIIhX5cpTMnBdC-18">
                    <mxGeometry width="50" height="50" relative="1" as="geometry">
                        <mxPoint x="1020" y="860" as="sourcePoint"/>
                        <mxPoint x="1140" y="860" as="targetPoint"/>
                    </mxGeometry>
                </mxCell>
                <mxCell id="S9lgAURIIhX5cpTMnBdC-16" value="顺序" style="whiteSpace=wrap;html=1;fontSize=22;" vertex="1" parent="PF4eyjsoJ85zReDZ38xo-1">
                    <mxGeometry x="1170" y="750" width="120" height="60" as="geometry"/>
                </mxCell>
                <mxCell id="S9lgAURIIhX5cpTMnBdC-18" value="分支" style="whiteSpace=wrap;html=1;fontSize=22;" vertex="1" parent="PF4eyjsoJ85zReDZ38xo-1">
                    <mxGeometry x="1170" y="830" width="120" height="60" as="geometry"/>
                </mxCell>
                <mxCell id="S9lgAURIIhX5cpTMnBdC-20" value="循环" style="whiteSpace=wrap;html=1;fontSize=22;" vertex="1" parent="PF4eyjsoJ85zReDZ38xo-1">
                    <mxGeometry x="1170" y="910" width="120" height="60" as="geometry"/>
                </mxCell>
                <mxCell id="S9lgAURIIhX5cpTMnBdC-27" style="edgeStyle=none;html=1;fontSize=22;" edge="1" parent="PF4eyjsoJ85zReDZ38xo-1" source="S9lgAURIIhX5cpTMnBdC-22" target="S9lgAURIIhX5cpTMnBdC-26">
                    <mxGeometry relative="1" as="geometry"/>
                </mxCell>
                <mxCell id="S9lgAURIIhX5cpTMnBdC-22" value="方法-函数&lt;br&gt;Method-Function&lt;br&gt;将实现某一功能的代码封装到一起" style="whiteSpace=wrap;html=1;fontSize=22;" vertex="1" parent="PF4eyjsoJ85zReDZ38xo-1">
                    <mxGeometry x="708.7" y="980" width="362.62" height="120" as="geometry"/>
                </mxCell>
                <mxCell id="S9lgAURIIhX5cpTMnBdC-25" value="" style="endArrow=classic;html=1;fontSize=22;exitX=0.5;exitY=1;exitDx=0;exitDy=0;entryX=0.5;entryY=0;entryDx=0;entryDy=0;" edge="1" parent="PF4eyjsoJ85zReDZ38xo-1" source="S9lgAURIIhX5cpTMnBdC-7" target="S9lgAURIIhX5cpTMnBdC-22">
                    <mxGeometry width="50" height="50" relative="1" as="geometry">
                        <mxPoint x="880" y="990" as="sourcePoint"/>
                        <mxPoint x="930" y="940" as="targetPoint"/>
                    </mxGeometry>
                </mxCell>
                <mxCell id="S9lgAURIIhX5cpTMnBdC-32" style="edgeStyle=none;html=1;entryX=0.5;entryY=0;entryDx=0;entryDy=0;fontSize=22;" edge="1" parent="PF4eyjsoJ85zReDZ38xo-1" source="S9lgAURIIhX5cpTMnBdC-26" target="S9lgAURIIhX5cpTMnBdC-31">
                    <mxGeometry relative="1" as="geometry"/>
                </mxCell>
                <mxCell id="S9lgAURIIhX5cpTMnBdC-26" value="构建该语言的世界观" style="ellipse;whiteSpace=wrap;html=1;fontSize=22;" vertex="1" parent="PF4eyjsoJ85zReDZ38xo-1">
                    <mxGeometry x="767.39" y="1190" width="250" height="120" as="geometry"/>
                </mxCell>
                <mxCell id="S9lgAURIIhX5cpTMnBdC-35" value="" style="edgeStyle=none;html=1;fontSize=22;" edge="1" parent="PF4eyjsoJ85zReDZ38xo-1" source="S9lgAURIIhX5cpTMnBdC-31" target="S9lgAURIIhX5cpTMnBdC-34">
                    <mxGeometry relative="1" as="geometry"/>
                </mxCell>
                <mxCell id="S9lgAURIIhX5cpTMnBdC-31" value="应用" style="whiteSpace=wrap;html=1;fontSize=22;" vertex="1" parent="PF4eyjsoJ85zReDZ38xo-1">
                    <mxGeometry x="723.5799999999999" y="1350" width="337.61" height="120" as="geometry"/>
                </mxCell>
                <mxCell id="S9lgAURIIhX5cpTMnBdC-37" value="" style="edgeStyle=none;html=1;fontSize=22;" edge="1" parent="PF4eyjsoJ85zReDZ38xo-1" source="S9lgAURIIhX5cpTMnBdC-34" target="S9lgAURIIhX5cpTMnBdC-36">
                    <mxGeometry relative="1" as="geometry"/>
                </mxCell>
                <mxCell id="S9lgAURIIhX5cpTMnBdC-34" value="框架" style="whiteSpace=wrap;html=1;fontSize=22;" vertex="1" parent="PF4eyjsoJ85zReDZ38xo-1">
                    <mxGeometry x="778.58" y="1500" width="227.62" height="90" as="geometry"/>
                </mxCell>
                <mxCell id="S9lgAURIIhX5cpTMnBdC-36" value="中间件&lt;br&gt;组件" style="whiteSpace=wrap;html=1;fontSize=22;" vertex="1" parent="PF4eyjsoJ85zReDZ38xo-1">
                    <mxGeometry x="832.39" y="1620" width="120" height="60" as="geometry"/>
                </mxCell>
                <mxCell id="S9lgAURIIhX5cpTMnBdC-39" value="基础语法阶段" style="text;html=1;align=center;verticalAlign=middle;resizable=0;points=[];autosize=1;strokeColor=none;fillColor=none;fontSize=22;" vertex="1" parent="PF4eyjsoJ85zReDZ38xo-1">
                    <mxGeometry x="628.58" y="315" width="150" height="30" as="geometry"/>
                </mxCell>
            </root>
        </mxGraphModel>
    </diagram>
</mxfile>
